<?xml version="1.0" encoding="iso-8859-1"?>
<!-- Generator: Adobe Illustrator 19.0.0, SVG Export Plug-In . SVG Version: 6.00 Build 0)  -->
<svg version="1.1" id="Capa_1" xmlns="http://www.w3.org/2000/svg" xmlns:xlink="http://www.w3.org/1999/xlink" x="0px" y="0px"
	 viewBox="0 0 512 512" style="enable-background:new 0 0 512 512;" xml:space="preserve">
<path style="fill:#E1E6E9;" d="M0.723,258.638c119.908,201.692,390.646,201.692,510.554,0c0.964-1.621,0.964-3.656,0-5.277
	c-119.908-201.692-390.646-201.692-510.554,0C-0.241,254.983-0.241,257.017,0.723,258.638z"/>
<path style="fill:#D2D6D8;" d="M511.28,258.634c-65.155,109.593-174.83,159.639-280.654,150.128
	c88.939-7.973,175.151-58.019,229.906-150.128c0.971-1.611,0.971-3.656,0-5.267c-54.755-92.109-140.967-142.155-229.906-150.128
	c105.824-9.512,215.499,40.535,280.654,150.128C512.24,254.978,512.24,257.022,511.28,258.634z"/>
<circle style="fill:#55D1E7;" cx="256" cy="256" r="150.84"/>
<path style="fill:#45C1CE;" d="M406.84,256c0,83.31-67.53,150.84-150.84,150.84c-8.427,0-16.699-0.692-24.754-2.024
	C302.782,393.012,357.341,330.883,357.341,256s-54.559-137.012-126.096-148.816c8.055-1.332,16.327-2.024,24.754-2.024
	C339.31,105.16,406.84,172.69,406.84,256z"/>
<circle style="fill:#5C6777;" cx="252.97" cy="261.97" r="50.743"/>
<path style="fill:#525760;" d="M303.72,261.967c0,28.028-22.72,50.748-50.748,50.748c-4.441,0-8.747-0.568-12.847-1.642
	c21.811-5.69,37.901-25.519,37.901-49.106s-16.09-43.416-37.901-49.106c4.1-1.074,8.406-1.642,12.847-1.642
	C281,211.219,303.72,233.939,303.72,261.967z"/>
<circle style="fill:#E1E6E9;" cx="281.53" cy="227.53" r="28.24"/>
<path style="fill:#D2D6D8;" d="M309.771,227.528c0,15.598-12.644,28.243-28.243,28.243c-2.471,0-4.868-0.316-7.15-0.914
	c12.139-3.167,21.093-14.202,21.093-27.329s-8.954-24.162-21.093-27.329c2.282-0.598,4.678-0.914,7.15-0.914
	C297.127,199.285,309.771,211.929,309.771,227.528z"/>
<g>
</g>
<g>
</g>
<g>
</g>
<g>
</g>
<g>
</g>
<g>
</g>
<g>
</g>
<g>
</g>
<g>
</g>
<g>
</g>
<g>
</g>
<g>
</g>
<g>
</g>
<g>
</g>
<g>
</g>
</svg>
