<?xml version="1.0"?>
<svg xmlns="http://www.w3.org/2000/svg" height="512px" viewBox="-11 0 468 468.51214" width="512px"><g><path d="m439.9375 315.3125c5.601562-5.589844 8.082031-13.582031 6.640625-21.359375l-29.359375-157.039063c-.3125-3.113281-1.730469-6.011718-4-8.160156-2.480469-2.644531-5.976562-4.101562-9.601562-4-3.917969.476563-4.480469 4.71875-4.238282 7.199219l14.160156 131.597656c2.117188 1.316407 4.078126 2.875 5.839844 4.640625 4.734375 4.609375 7.730469 10.714844 8.480469 17.28125.785156 6.523438-1.417969 13.050782-6 17.757813l-64.5625 75.042969c-2.757813 3.761718-6.078125 7.078124-9.839844 9.839843-1.929687 1.378907-3.773437 2.875-5.519531 4.480469-3.570312 3.617188-8.042969 6.214844-12.960938 7.519531l-2.71875-15.839843c1.917969-1.050782 3.691407-2.34375 5.28125-3.839844 2.066407-1.875 4.230469-3.636719 6.480469-5.28125 2.585938-1.894532 4.855469-4.191406 6.71875-6.800782l65.359375-76c1.378906-1.390624 2.054688-3.332031 1.839844-5.28125-.8125-4.894531-4.117188-9.015624-8.71875-10.878906 0-.078125-.082031-.078125-.160156-.078125-2.460938-1.25-5.417969-.96875-7.601563.71875l-92.957031 82.320313c-.457031.417968-.96875.769531-1.523438 1.039062l-33.679687 17.761719c-5.238281 2.695313-9.121094 7.449219-10.71875 13.117187l-9.359375 30.320313 24.960938 46.640625 50.398437-8.878906-3.679687-12.160156c-1.523438-4.878907-.300782-10.199219 3.199218-13.921876zm0 0" data-original="#000000" class="active-path" data-old_color="#000000" fill="#66A8C0"/><path d="m180.019531 378.03125-33.761719-17.839844c-.554687-.269531-1.066406-.621094-1.519531-1.039062l-92.558593-82c-2.21875-1.921875-5.367188-2.332032-8-1.039063-.082032 0-.160157 0-.160157.078125-4.550781 1.828125-7.820312 5.886719-8.640625 10.722656-.335937 1.773438.164063 3.605469 1.359375 4.957032l65.359375 76c1.976563 2.785156 4.378906 5.242187 7.121094 7.28125 2.25 1.644531 4.414062 3.40625 6.480469 5.28125 1.589843 1.496094 3.363281 2.789062 5.277343 3.839844l-2.71875 15.839843c-4.914062-1.304687-9.390624-3.902343-12.960937-7.519531-1.746094-1.605469-3.589844-3.101562-5.519531-4.480469-3.914063-2.902343-7.367188-6.382812-10.238282-10.320312l-64.5625-75.039063c-4.394531-4.675781-6.425781-11.089844-5.519531-17.441406.746094-6.585938 3.773438-12.699219 8.5625-17.28125 1.675781-1.75 3.585938-3.257812 5.679688-4.480469l14.160156-131.597656c.238281-2.480469-.320313-6.722656-4.242187-7.199219-3.632813-.152344-7.148438 1.3125-9.597657 4-2.128906 1.9375-3.492187 4.578125-3.839843 7.4375l-29.519532 157.761719c-1.445312 7.777344 1.039063 15.769531 6.636719 21.359375l117.839844 117.757812c3.480469 3.671876 4.707031 8.933594 3.203125 13.761719l-3.679688 12.398438 50.476563 9.28125 24.960937-47.199219-9.4375-30.242188c-1.578125-5.636718-5.433594-10.363281-10.640625-13.039062zm0 0" data-original="#000000" class="active-path" data-old_color="#000000" fill="#66A8C0"/><path d="m180.339844 278.832031 2 2.960938c8.238281 12.640625 9.277344 51.839843 9.359375 70.398437h63.839843c.078126-18.558594 1.121094-57.757812 9.359376-70.398437l2-2.960938c24-36.71875 68.71875-105.039062 68.71875-150.640625 0-61.855468-50.144532-112-112-112-61.855469 0-112 50.144532-112 112 0 45.601563 44.722656 113.921875 68.722656 150.640625zm47.925781-181.152343 56 40c2.832031 2.019531 4.035156 5.640624 2.972656 8.953124s-4.140625 5.558594-7.621093 5.558594h-24v24c0 4.417969-3.582032 8-8 8h-48c-4.417969 0-8-3.582031-8-8v-24h-24c-3.476563 0-6.558594-2.246094-7.617188-5.558594-1.0625-3.3125.140625-6.933593 2.96875-8.953124l56-40c2.78125-1.984376 6.515625-1.984376 9.296875 0zm-4.648437-65.488282v16c-44.160157.050782-79.949219 35.839844-80 80 0 36.074219 44.527343 104.105469 63.546874 133.152344l1.933594 2.960938-13.390625 8.742187-1.929687-2.949219c-21.472656-32.792968-66.160156-101.058594-66.160156-141.90625.058593-52.996094 43.003906-95.941406 96-96zm0 0" data-original="#000000" class="active-path" data-old_color="#000000" fill="#66A8C0"/><path d="m192.578125 136.191406h7.039063c4.417968 0 8 3.582032 8 8v24h32v-24c0-4.417968 3.582031-8 8-8h7.042968l-31.042968-22.167968zm0 0" data-original="#000000" class="active-path" data-old_color="#000000" fill="#66A8C0"/><path d="m215.136719 416.191406h16.960937l4.878906-16h-26.71875zm0 0" data-original="#000000" class="active-path" data-old_color="#000000" fill="#66A8C0"/><path d="m253.296875 368.191406h-59.359375c5.066406 4.25 8.902344 9.773438 11.121094 16h37.121094c2.214843-6.226562 6.054687-11.75 11.117187-16zm0 0" data-original="#000000" class="active-path" data-old_color="#000000" fill="#66A8C0"/><path d="m39.523438 80 .1875-16 16 .191406-.191407 16zm0 0" data-original="#000000" class="active-path" data-old_color="#000000" fill="#66A8C0"/><path d="m7.523438 80 .191406-16 16 .191406-.191406 16zm0 0" data-original="#000000" class="active-path" data-old_color="#000000" fill="#66A8C0"/><path d="m23.523438 64 .191406-16 16 .191406-.191406 16zm0 0" data-original="#000000" class="active-path" data-old_color="#000000" fill="#66A8C0"/><path d="m23.519531 96 .191407-16 16 .191406-.191407 16zm0 0" data-original="#000000" class="active-path" data-old_color="#000000" fill="#66A8C0"/><path d="m103.523438 32 .191406-16 15.996094.191406-.191407 16zm0 0" data-original="#000000" class="active-path" data-old_color="#000000" fill="#66A8C0"/><path d="m71.523438 31.996094.191406-15.996094 16 .1875-.191406 16zm0 0" data-original="#000000" class="active-path" data-old_color="#000000" fill="#66A8C0"/><path d="m87.523438 16 .191406-16 16 .191406-.191406 16zm0 0" data-original="#000000" class="active-path" data-old_color="#000000" fill="#66A8C0"/><path d="m87.523438 47.996094.191406-15.996094 15.996094.191406-.191407 15.996094zm0 0" data-original="#000000" class="active-path" data-old_color="#000000" fill="#66A8C0"/><path d="m391.523438 64.195312 16-.183593.1875 15.996093-16 .1875zm0 0" data-original="#000000" class="active-path" data-old_color="#000000" fill="#66A8C0"/><path d="m423.523438 64.199219 16-.191407.191406 16-16 .191407zm0 0" data-original="#000000" class="active-path" data-old_color="#000000" fill="#66A8C0"/><path d="m407.527344 48.195312 16-.1875.1875 16-16 .1875zm0 0" data-original="#000000" class="active-path" data-old_color="#000000" fill="#66A8C0"/><path d="m407.527344 80.191406 16-.1875.1875 16-16 .1875zm0 0" data-original="#000000" class="active-path" data-old_color="#000000" fill="#66A8C0"/><path d="m327.527344 16.191406 16-.1875.1875 15.996094-16 .1875zm0 0" data-original="#000000" class="active-path" data-old_color="#000000" fill="#66A8C0"/><path d="m359.523438 16.191406 16-.191406.191406 16-16 .191406zm0 0" data-original="#000000" class="active-path" data-old_color="#000000" fill="#66A8C0"/><path d="m343.523438.195312 16-.1874995.1875 15.9999995-16 .1875zm0 0" data-original="#000000" class="active-path" data-old_color="#000000" fill="#66A8C0"/><path d="m343.523438 32.195312 15.996093-.1875.1875 15.996094-15.996093.1875zm0 0" data-original="#000000" class="active-path" data-old_color="#000000" fill="#66A8C0"/></g> </svg>
