<svg height="512pt" viewBox="0 0 512 512" width="512pt" xmlns="http://www.w3.org/2000/svg"><path d="m370.121094 309.078125c-78.222656 0-141.859375-63.636719-141.859375-141.859375s63.636719-141.859375 141.859375-141.859375 141.859375 63.636719 141.859375 141.859375-63.636719 141.859375-141.859375 141.859375zm0-244.523437c-56.609375 0-102.664063 46.054687-102.664063 102.664062s46.054688 102.664062 102.664063 102.664062c56.605468 0 102.660156-46.054687 102.660156-102.664062s-46.050781-102.664062-102.660156-102.664062zm0 0" fill="#629acc"/><path d="m461.601562 58.890625c20.90625 24.714844 33.53125 56.648437 33.53125 91.480469 0 78.222656-63.636718 141.859375-141.859374 141.859375-34.832032 0-66.765626-12.625-91.480469-33.53125 26.042969 30.792969 64.9375 50.378906 108.328125 50.378906 78.222656 0 141.859375-63.636719 141.859375-141.859375 0-43.390625-19.589844-82.285156-50.378907-108.328125zm0 0" fill="#48709b"/><path d="m324.621094 83.519531v-.082031h115.402344v205.058594c0 31.867187-25.835938 57.699218-57.699219 57.699218-31.867188 0-57.699219-25.832031-57.699219-57.699218v-77.53125c-40.523438-8.820313-70.570312-41.011719-70.570312-79.375 0-13.488282 0-48.152344 0-48.152344zm0 0" fill="#48709b"/><path d="m399.300781 83.4375v195.242188c0 29.230468-21.746093 53.371093-49.941406 57.164062 9.347656 6.519531 20.703125 10.351562 32.960937 10.351562 31.867188 0 57.699219-25.832031 57.699219-57.699218v-205.058594zm0 0" fill="#3a6187"/><path d="m440.019531 81.777344c0-45.164063-41.628906-81.777344-92.980469-81.777344-51.355468 0-92.984374 36.613281-92.984374 81.777344 0 45.164062 41.628906 81.773437 92.984374 81.773437 51.351563 0 92.980469-36.609375 92.980469-81.773437zm0 0" fill="#afb9d2"/><g fill="#48709b"><path d="m373.890625 108.488281h1.503906c13.203125 0 23.90625-10.703125 23.90625-23.902343v-25.410157h-49.316406v25.410157c0 13.199218 10.703125 23.902343 23.90625 23.902343zm0 0"/><path d="m317.910156 82.46875c0 8.976562-7.277344 16.257812-16.257812 16.257812-8.976563 0-16.257813-7.28125-16.257813-16.257812 0-8.980469 7.28125-16.257812 16.257813-16.257812 8.980468 0 16.257812 7.277343 16.257812 16.257812zm0 0"/><path d="m350.429688 114.984375c0 8.980469-7.28125 16.257813-16.257813 16.257813-8.980469 0-16.261719-7.277344-16.261719-16.257813s7.28125-16.257813 16.261719-16.257813c8.976563 0 16.257813 7.277344 16.257813 16.257813zm0 0"/></g><path d="m141.859375 474.882812c-78.222656 0-141.859375-63.636718-141.859375-141.859374 0-78.222657 63.636719-141.859376 141.859375-141.859376s141.859375 63.636719 141.859375 141.859376c0 78.222656-63.636719 141.859374-141.859375 141.859374zm0-244.523437c-56.605469 0-102.664063 46.054687-102.664063 102.664063 0 56.605468 46.054688 102.660156 102.664063 102.660156s102.664063-46.054688 102.664063-102.660156c0-56.609376-46.054688-102.664063-102.664063-102.664063zm0 0" fill="#629acc"/><path d="m233.339844 224.691406c20.90625 24.71875 33.53125 56.652344 33.53125 91.484375 0 78.21875-63.636719 141.859375-141.859375 141.859375-34.832031 0-66.765625-12.628906-91.480469-33.53125 26.042969 30.789063 64.9375 50.378906 108.328125 50.378906 78.222656 0 141.859375-63.640624 141.859375-141.859374 0-43.390626-19.585938-82.289063-50.378906-108.332032zm0 0" fill="#48709b"/><path d="m201.796875 249.320312v-.082031h-115.398437v205.0625c0 31.867188 25.832031 57.699219 57.699218 57.699219 31.867188 0 57.699219-25.832031 57.699219-57.699219v-77.53125c40.523437-8.824219 70.566406-41.011719 70.566406-79.378906 0-13.484375 0-48.152344 0-48.152344zm0 0" fill="#48709b"/><path d="m230.289062 249.289062v48.101563c0 38.800781-30.726562 71.289063-71.945312 79.671875v77.238281c0 24.175781-14.878906 44.871094-35.972656 53.453125 6.707031 2.730469 14.039062 4.246094 21.726562 4.246094 31.867188 0 57.699219-25.835938 57.699219-57.699219v-77.535156c40.523437-8.820313 70.566406-41.011719 70.566406-79.375 0-13.488281 0-48.152344 0-48.152344zm0 0" fill="#3a6187"/><path d="m272.367188 247.578125c0-45.164063-41.632813-81.773437-92.984376-81.773437-51.351562 0-92.984374 36.609374-92.984374 81.773437s41.632812 81.777344 92.984374 81.777344c51.351563 0 92.984376-36.613281 92.984376-81.777344zm0 0" fill="#afb9d2"/><path d="m347.039062 0c-4.714843 0-9.34375.3125-13.867187.90625 44.777344 5.886719 79.117187 39.851562 79.117187 80.871094 0 41.019531-34.339843 74.980468-79.117187 80.867187 4.523437.597657 9.152344.90625 13.867187.90625 51.351563 0 92.980469-36.609375 92.980469-81.773437.003907-45.164063-41.628906-81.777344-92.980469-81.777344zm0 0" fill="#959cb3"/><path d="m179.382812 165.804688c-4.710937 0-9.339843.308593-13.863281.90625 44.777344 5.886718 79.117188 39.847656 79.117188 80.867187s-34.34375 74.984375-79.117188 80.871094c4.523438.59375 9.152344.90625 13.863281.90625 51.351563 0 92.984376-36.613281 92.984376-81.777344s-41.632813-81.773437-92.984376-81.773437zm0 0" fill="#959cb3"/><path d="m152.53125 274.289062h-1.507812c-13.199219 0-23.902344-10.699218-23.902344-23.902343v-25.410157h49.3125v25.410157c0 13.203125-10.699219 23.902343-23.902344 23.902343zm0 0" fill="#48709b"/><path d="m381.421875 59.171875v24.65625c0 10.464844-6.523437 19.398437-15.71875 22.980469 2.773437 1.082031 5.785156 1.679687 8.941406 1.679687 13.617188 0 24.65625-11.039062 24.65625-24.660156v-24.65625zm0 0" fill="#3a6187"/><path d="m158.554688 224.976562v24.65625c0 10.464844-6.519532 19.398438-15.714844 22.980469 2.773437 1.078125 5.785156 1.675781 8.9375 1.675781 13.621094 0 24.660156-11.039062 24.660156-24.65625v-24.65625zm0 0" fill="#3a6187"/><path d="m241.023438 248.269531c0 8.980469-7.277344 16.257813-16.257813 16.257813-8.976563 0-16.257813-7.277344-16.257813-16.257813s7.28125-16.257812 16.257813-16.257812c8.980469 0 16.257813 7.277343 16.257813 16.257812zm0 0" fill="#48709b"/><path d="m208.507812 280.785156c0 8.980469-7.277343 16.261719-16.257812 16.261719-8.976562 0-16.257812-7.28125-16.257812-16.261719 0-8.976562 7.28125-16.257812 16.257812-16.257812 8.980469 0 16.257812 7.28125 16.257812 16.257812zm0 0" fill="#48709b"/><path d="m399.300781 59.171875c0 13.617187-11.039062 24.65625-24.65625 24.65625-13.621093 0-24.660156-11.039063-24.660156-24.65625s11.039063-24.65625 24.660156-24.65625c13.617188 0 24.65625 11.039063 24.65625 24.65625zm0 0" fill="#c7cfe2"/><path d="m176.433594 224.976562c0 13.617188-11.039063 24.65625-24.65625 24.65625-13.617188 0-24.65625-11.039062-24.65625-24.65625 0-13.617187 11.039062-24.65625 24.65625-24.65625 13.617187 0 24.65625 11.039063 24.65625 24.65625zm0 0" fill="#c7cfe2"/><path d="m378.453125 34.808594c2.558594 3.886718 4.046875 8.535156 4.046875 13.53125 0 13.617187-11.039062 24.65625-24.65625 24.65625-1.296875 0-2.570312-.101563-3.8125-.292969 4.410156 6.699219 11.992188 11.125 20.613281 11.125 13.617188 0 24.65625-11.039063 24.65625-24.65625 0-12.320313-9.039062-22.527344-20.847656-24.363281zm0 0" fill="#959cb3"/><path d="m155.589844 200.613281c2.554687 3.882813 4.046875 8.53125 4.046875 13.53125 0 13.617188-11.039063 24.65625-24.65625 24.65625-1.296875 0-2.570313-.101562-3.8125-.292969 4.410156 6.699219 11.992187 11.125 20.609375 11.125 13.621094 0 24.660156-11.039062 24.660156-24.65625-.003906-12.320312-9.039062-22.53125-20.847656-24.363281zm0 0" fill="#959cb3"/></svg>