<?xml version="1.0"?>
<svg xmlns="http://www.w3.org/2000/svg" id="Layer_5" enable-background="new 0 0 64 64" height="512px" viewBox="0 0 64 64" width="512px"><g><path d="m50.379 21.621c.398-.398.621-.937.621-1.5 0-1.171-.95-2.121-2.121-2.121-.563 0-1.102.223-1.5.621l-20.379 20.379 10.379-10.379c.398-.398.621-.937.621-1.5 0-1.171-.95-2.121-2.121-2.121-.563 0-1.102.223-1.5.621l-10.379 10.379 9.379-9.379c.398-.398.621-.937.621-1.5 0-1.171-.95-2.121-2.121-2.121-.563 0-1.102.223-1.5.621l-9.379 9.379 7.379-7.379c.398-.398.621-.937.621-1.5 0-1.171-.95-2.121-2.121-2.121-.563 0-1.102.223-1.5.621l-9.019 9.019c-.884.884-1.47 2.023-1.676 3.256l-.684 4.104-2 2c.899 0 1.779.364 2.414 1l9.293 9.293 1.293-1.293 4.591-.765c.927-.154 1.804-.524 2.562-1.08l12.763-9.359c.681-.501 1.084-1.296 1.084-2.141 0-1.466-1.189-2.655-2.655-2.655h-.345l-10.473 7.617c-.303.221-.722.188-.988-.077-.298-.298-.298-.781 0-1.078z" data-original="#000000" class="active-path" data-old_color="#000000" fill="#66A8C0"/><path d="m51 24v2c4.411 0 8-3.589 8-8s-3.589-8-8-8-8 3.589-8 8h2c0-3.309 2.691-6 6-6s6 2.691 6 6-2.691 6-6 6z" data-original="#000000" class="active-path" data-old_color="#000000" fill="#66A8C0"/><path d="m51 8c5.514 0 10 4.486 10 10s-4.486 10-10 10v2c6.617 0 12-5.383 12-12s-5.383-12-12-12-12 5.383-12 12h2c0-5.514 4.486-10 10-10z" data-original="#000000" class="active-path" data-old_color="#000000" fill="#66A8C0"/><path d="m3.007 43.482h6.485v1.536h-6.485z" transform="matrix(.707 -.707 .707 .707 -29.459 17.38)" data-original="#000000" class="active-path" data-old_color="#000000" fill="#66A8C0"/><path d="m13 43.414c-.263-.263-.628-.414-1-.414s-.737.151-1 .414l-5.586 5.586c-.263.263-.414.628-.414 1s.151.737.414 1l9.586 9.586c.526.526 1.474.526 2 0l.086-.086-6.964-6.964c-.724-.724-1.122-1.685-1.122-2.707 0-2.112 1.717-3.829 3.829-3.829 1.022 0 1.984.398 2.707 1.122l6.964 6.964.086-.086c.263-.263.414-.628.414-1s-.151-.737-.414-1z" data-original="#000000" class="active-path" data-old_color="#000000" fill="#66A8C0"/><path d="m12.829 49c-1.009 0-1.829.82-1.829 1.829 0 .488.19.947.536 1.293l6.964 6.964 2.586-2.586-6.964-6.964c-.346-.346-.805-.536-1.293-.536z" data-original="#000000" class="active-path" data-old_color="#000000" fill="#66A8C0"/><path d="m56 42c-2.757 0-5 2.243-5 5s2.243 5 5 5 5-2.243 5-5-2.243-5-5-5zm0 8c-1.654 0-3-1.346-3-3s1.346-3 3-3 3 1.346 3 3-1.346 3-3 3z" data-original="#000000" class="active-path" data-old_color="#000000" fill="#66A8C0"/><circle cx="56" cy="47" r="1" data-original="#000000" class="active-path" data-old_color="#000000" fill="#66A8C0"/><path d="m25 13c2.757 0 5-2.243 5-5s-2.243-5-5-5-5 2.243-5 5 2.243 5 5 5zm0-8c1.654 0 3 1.346 3 3s-1.346 3-3 3-3-1.346-3-3 1.346-3 3-3z" data-original="#000000" class="active-path" data-old_color="#000000" fill="#66A8C0"/><circle cx="25" cy="8" r="1" data-original="#000000" class="active-path" data-old_color="#000000" fill="#66A8C0"/><path d="m38.341 12.06-6.521-2.508c-.151.663-.394 1.29-.718 1.867l6.508 2.503c.196-.644.448-1.262.731-1.862z" data-original="#000000" class="active-path" data-old_color="#000000" fill="#66A8C0"/><path d="m53.92 40.315c.627-.196 1.293-.301 1.982-.31l-.65-8.67c-.637.204-1.298.351-1.971.462z" data-original="#000000" class="active-path" data-old_color="#000000" fill="#66A8C0"/></g> </svg>
